<?xml version="1.0" standalone="no"?>
<!DOCTYPE svg PUBLIC "-//W3C//DTD SVG 20010904//EN"
 "http://www.w3.org/TR/2001/REC-SVG-20010904/DTD/svg10.dtd">
<svg version="1.0" xmlns="http://www.w3.org/2000/svg"
 width="16.000000pt" height="16.000000pt" viewBox="0 0 16.000000 16.000000"
 preserveAspectRatio="xMidYMid meet">
<metadata>
Created by potrace 1.11, written by Peter Selinger 2001-2013
</metadata>
<g transform="translate(0.000000,16.000000) scale(0.005031,-0.005031)"
fill="#000000" stroke="none">
<path d="M0 2561 c0 -404 3 -622 10 -626 6 -4 7 -13 1 -24 -6 -11 -10 -386
-11 -964 l0 -947 1590 0 1590 0 0 400 c0 396 0 401 -21 423 -12 12 -19 16 -15
10 13 -23 -5 -14 -29 15 -23 28 -28 29 -202 45 -180 18 -321 34 -382 44 l-33
6 17 -27 c10 -14 13 -26 7 -26 -5 0 -12 8 -14 18 -4 14 -31 27 -94 46 -48 16
-104 30 -124 33 l-35 4 28 -16 c15 -9 27 -18 27 -20 0 -6 -73 25 -84 36 -6 5
-18 9 -28 9 -16 0 -18 -5 -13 -37 4 -21 11 -54 16 -73 5 -19 9 -53 9 -75 l0
-40 -14 27 c-8 16 -18 33 -22 40 -4 7 -8 23 -9 37 0 13 -6 26 -12 28 -7 3 -9
11 -6 19 3 8 0 14 -7 14 -9 0 -10 3 -1 14 9 10 8 15 -1 19 -22 8 -21 108 2
166 11 28 20 60 20 70 0 10 7 41 16 69 12 35 23 52 38 56 11 3 80 6 151 7 72
0 138 5 148 10 11 6 17 6 17 -1 0 -5 12 -10 26 -10 24 0 25 2 21 45 -3 24 -2
44 2 43 3 0 8 1 11 2 15 6 68 5 65 -1 -6 -9 24 -21 36 -13 5 3 9 -4 9 -15 0
-24 15 -28 24 -6 3 8 11 15 17 15 8 0 8 -4 -1 -15 -16 -19 -1 -19 34 -2 14 8
23 17 19 20 -3 4 1 7 10 7 23 0 31 40 17 90 -13 48 -9 53 50 70 62 17 196 40
232 40 49 0 62 19 54 77 -4 27 -12 60 -18 75 -13 36 -3 75 22 83 19 6 20 15
20 291 0 209 -3 283 -11 278 -6 -4 -48 -9 -93 -11 -103 -5 -136 -17 -136 -50
0 -38 18 -63 46 -63 39 0 80 -26 94 -59 18 -44 -12 -95 -58 -99 -42 -4 -86 15
-106 47 -14 24 -15 25 -16 5 0 -36 -26 -47 -123 -52 -93 -4 -94 -4 -115 23
-19 24 -22 40 -22 121 0 88 1 94 26 113 15 12 37 21 50 21 12 0 25 4 29 10 5
9 -12 181 -20 188 -2 2 -13 -6 -24 -17 -12 -12 -28 -21 -36 -21 -8 0 -26 -17
-39 -37 -13 -21 -36 -50 -51 -65 -24 -26 -24 -28 -6 -28 29 0 53 -29 48 -57
-2 -12 0 -23 5 -23 5 0 6 -6 1 -12 -4 -7 -8 -17 -8 -23 0 -17 -104 -35 -274
-47 -129 -10 -165 -10 -169 0 -2 7 -7 10 -12 7 -4 -3 -7 8 -6 25 3 40 41 78
85 85 82 13 113 25 105 43 -3 9 -10 36 -14 60 -9 54 -20 65 -21 21 0 -28 -2
-30 -9 -14 -5 11 -9 14 -9 6 -1 -7 -7 -11 -16 -7 -8 3 -26 0 -40 -6 -20 -9
-28 -8 -44 6 -33 30 -32 61 5 97 19 18 34 39 34 46 0 7 9 13 19 13 11 0 23 5
26 10 3 6 10 10 15 10 14 0 60 -46 53 -53 -3 -4 -1 -7 5 -7 7 0 12 -7 12 -15
0 -8 9 -15 21 -15 11 0 18 4 14 9 -3 5 2 16 10 24 8 9 15 24 15 34 0 11 5 24
11 30 8 8 8 17 0 31 -8 15 -8 21 2 25 9 3 9 10 -2 31 l-15 27 -24 -27 c-17
-18 -32 -24 -48 -21 -16 3 -24 -1 -27 -12 -6 -26 -37 58 -40 107 -2 44 -1 45
42 69 2 1 -4 14 -13 28 -10 15 -15 33 -12 40 2 7 -3 19 -12 27 -13 11 -54 14
-194 12 l-177 -2 -55 -42 c-58 -44 -67 -61 -54 -98 4 -13 7 -43 7 -66 l-2 -42
-24 22 c-12 12 -23 24 -23 28 0 3 -9 15 -20 26 -24 24 -28 4 -5 -26 21 -28 18
-40 -4 -20 -20 18 -46 76 -33 75 18 -3 20 3 10 33 l-11 32 -10 -25 -11 -24 -4
28 c-3 27 -21 39 -23 15 0 -7 -4 -3 -9 10 -6 14 -5 32 2 50 6 15 12 46 13 70
1 23 7 48 13 54 21 21 14 48 -11 48 -13 0 -27 -3 -31 -7 -12 -12 -36 -12 -36
0 0 6 -8 1 -17 -13 -28 -40 -47 -55 -65 -52 -19 4 -32 -29 -23 -57 4 -12 12
-18 21 -14 10 4 14 -2 14 -21 0 -14 5 -26 10 -26 6 0 10 -7 10 -16 0 -8 -4
-12 -10 -9 -6 3 -7 -1 -4 -9 7 -19 16 -20 32 -4 7 7 12 8 12 4 0 -4 -10 -17
-22 -28 -13 -11 -17 -17 -10 -13 7 4 12 0 12 -10 0 -13 -4 -14 -20 -5 -11 6
-20 20 -20 30 0 23 -18 27 -26 5 -7 -18 -42 -14 -55 6 -5 8 -9 9 -9 3 0 -6
-13 -11 -28 -12 -15 0 -34 -2 -42 -4 -9 -2 -14 3 -12 12 2 8 -8 2 -23 -14 -19
-22 -25 -25 -25 -12 0 13 -5 16 -21 11 -12 -4 -31 -9 -42 -10 -49 -8 -99 -24
-114 -37 -14 -11 -16 -11 -9 2 4 8 -4 3 -18 -12 -14 -16 -32 -28 -41 -28 -9 0
-27 -11 -40 -25 -14 -13 -25 -19 -25 -12 0 7 -7 4 -15 -7 -10 -13 -22 -17 -40
-14 -14 3 -25 1 -25 -4 0 -6 -57 -9 -142 -8 -171 3 -163 3 -149 -14 15 -18 22
-74 10 -82 -15 -9 0 -24 19 -17 9 4 26 17 37 30 24 27 35 29 35 8 0 -8 6 -15
13 -15 24 0 58 -36 51 -55 -5 -13 -9 -14 -15 -3 -6 9 -9 2 -9 -19 0 -18 -5
-33 -11 -33 -5 0 -8 -3 -6 -7 2 -5 -4 -16 -15 -25 -10 -10 -18 -15 -18 -10 0
4 -5 0 -11 -8 -9 -12 -10 -11 -6 8 3 12 1 22 -4 22 -16 0 -31 -104 -17 -118
10 -10 13 -120 3 -130 -2 -3 0 -12 5 -21 6 -12 2 -31 -11 -60 -21 -47 -25
-101 -9 -117 6 -6 13 -46 16 -90 6 -71 4 -81 -15 -103 -11 -13 -21 -30 -21
-36 0 -7 -14 -27 -30 -45 -17 -18 -30 -37 -30 -44 -1 -12 -24 -46 -32 -46 -7
0 -13 26 -37 140 -16 79 -19 86 -50 102 -52 26 -71 63 -71 138 0 66 -19 120
-55 160 -25 28 -29 81 -10 125 16 36 24 108 27 235 0 25 -7 86 -17 135 -20
107 -16 186 12 243 20 42 20 42 1 79 -11 20 -18 47 -15 60 l4 23 -163 0 -164
0 0 -619z m1590 359 c0 -5 -2 -10 -4 -10 -3 0 -8 5 -11 10 -3 6 -1 10 4 10 6
0 11 -4 11 -10z m57 -12 c-3 -8 -6 -5 -6 6 -1 11 2 17 5 13 3 -3 4 -12 1 -19z
m-887 -218 c13 -8 13 -10 -2 -10 -9 0 -20 5 -23 10 -8 13 5 13 25 0z m412
-281 c2 -7 28 -11 63 -10 33 0 77 -4 98 -10 33 -9 44 -7 73 10 41 24 64 27 64
8 0 -8 18 -22 40 -32 22 -10 38 -20 35 -23 -3 -3 11 -16 30 -29 19 -13 35 -29
35 -35 0 -7 6 -3 14 8 18 24 34 10 18 -16 -10 -17 -10 -20 3 -20 9 0 15 -9 15
-25 0 -14 -4 -25 -10 -25 -5 0 -7 7 -4 15 4 8 3 15 -1 15 -3 0 -13 -7 -21 -15
-11 -11 -12 -15 -3 -15 10 0 10 -3 1 -12 -16 -16 -15 -28 2 -28 7 0 16 -9 19
-20 6 -23 -1 -25 -27 -5 -20 15 -41 11 -30 -6 3 -5 9 -7 14 -4 4 3 10 -2 14
-10 3 -8 18 -15 33 -15 20 0 24 -3 14 -9 -22 -14 45 -44 80 -37 32 6 40 -10
12 -21 -10 -4 -35 -24 -55 -45 -22 -21 -48 -38 -60 -38 -44 0 -70 -13 -80 -39
-6 -14 -11 -29 -10 -33 1 -3 -12 -9 -28 -13 -34 -8 -39 -24 -10 -32 18 -5 19
-11 15 -57 -8 -76 -6 -98 10 -116 8 -9 13 -19 10 -22 -7 -7 48 -109 72 -135 9
-10 8 -23 -4 -59 -16 -47 -39 -66 -53 -44 -4 7 -13 9 -20 5 -9 -5 -11 -4 -6 3
8 13 -78 6 -104 -8 -16 -9 -15 -10 30 -23 10 -2 4 -9 -17 -21 -18 -9 -33 -21
-33 -27 0 -6 -8 -9 -17 -8 -10 1 -26 -1 -36 -6 -22 -9 -87 3 -87 17 0 5 7 8
14 5 10 -4 13 -1 10 8 -3 8 4 28 15 44 26 36 27 61 2 61 -11 0 -22 6 -24 13
-4 7 -6 6 -6 -5 -1 -11 -7 -15 -20 -11 -15 4 -20 -4 -29 -39 -6 -24 -24 -62
-40 -84 -38 -52 -48 -96 -28 -117 9 -9 16 -18 16 -21 0 -9 47 -56 57 -56 16 0
31 -43 26 -78 -3 -17 -9 -32 -13 -32 -5 0 -6 9 -3 20 4 14 0 20 -11 20 -9 0
-16 -7 -16 -15 0 -7 -7 -18 -16 -23 -11 -6 -13 -11 -5 -16 6 -4 11 -11 11 -17
0 -5 -9 -4 -20 3 -18 12 -18 13 -2 31 23 26 21 58 -5 84 -16 15 -23 18 -23 8
0 -20 -19 -28 -35 -15 -11 9 -12 17 -5 30 17 32 11 44 -12 24 -20 -18 -21 -18
-15 -1 6 15 3 17 -13 12 -12 -4 -20 -2 -20 5 0 8 10 10 25 8 29 -6 30 -2 10
43 -14 33 -14 34 -15 7 0 -17 -8 -31 -20 -38 -16 -8 -18 -8 -14 4 4 11 0 13
-18 9 l-23 -6 25 23 c23 20 23 22 4 16 -14 -4 -26 -1 -35 11 -12 14 -12 16 1
12 8 -3 23 3 33 13 16 17 16 18 -3 18 -11 0 -20 7 -20 15 0 8 -7 15 -15 15 -8
0 -15 7 -15 16 0 10 -5 14 -15 10 -13 -5 -14 -2 -4 15 8 16 8 24 -1 33 -8 8
-10 6 -5 -9 6 -16 5 -17 -4 -5 -6 8 -11 22 -11 30 0 9 -5 21 -12 28 -6 6 -13
18 -14 26 -1 8 -7 30 -12 48 -6 18 -13 67 -16 108 -3 41 -9 92 -12 112 -5 30
-1 49 21 92 24 47 26 59 17 83 -21 52 -33 274 -19 331 4 18 14 32 22 32 8 0
15 4 15 8 0 14 36 52 49 52 6 0 14 7 17 15 4 8 12 15 20 15 7 0 29 9 48 19 18
11 47 21 62 24 16 2 32 5 36 6 3 0 8 -4 10 -10z m745 -178 c12 -15 31 -56 43
-91 12 -35 36 -81 55 -102 22 -26 39 -62 51 -106 9 -37 23 -78 29 -92 15 -31
33 -126 39 -208 3 -34 10 -81 16 -103 6 -23 9 -43 6 -46 -8 -9 -38 26 -31 37
3 5 1 10 -5 10 -7 0 -10 6 -7 14 6 14 -21 32 -31 21 -3 -3 -5 -23 -4 -45 1
-22 -3 -40 -8 -40 -6 0 -10 3 -11 8 -1 11 -7 34 -17 67 -10 34 -10 45 7 132 9
46 9 73 1 103 -11 41 -53 127 -71 145 -5 5 -9 16 -9 25 0 9 -13 26 -30 38 -24
18 -30 30 -30 60 0 41 -20 77 -42 77 -8 0 -12 10 -10 29 2 15 -3 35 -10 44
-11 13 -11 15 3 10 12 -5 15 -1 11 18 -2 13 -1 32 3 41 7 17 8 17 18 -1 7 -10
22 -31 34 -45z m603 -136 c0 -8 5 -15 11 -15 6 0 4 -7 -5 -15 -23 -23 -36 -18
-36 15 0 20 5 30 15 30 8 0 15 -7 15 -15z m-242 -20 c23 -10 42 -22 42 -26 0
-11 -36 -21 -84 -21 l-43 -1 9 -51 c5 -28 7 -80 7 -116 -1 -36 1 -99 5 -140 6
-61 5 -79 -8 -95 -14 -19 -15 -13 -12 69 4 80 1 98 -25 169 -16 44 -28 85 -26
91 2 6 12 -13 21 -41 31 -93 45 -68 28 47 -5 32 -12 44 -22 43 -10 -2 -15 6
-15 26 0 16 2 29 5 29 20 -1 30 4 30 16 0 13 26 27 40 22 3 -2 24 -11 48 -21z
m-528 -235 c0 -5 -2 -10 -4 -10 -3 0 -8 5 -11 10 -3 6 -1 10 4 10 6 0 11 -4
11 -10z m-40 -20 c0 -5 -4 -10 -10 -10 -5 0 -10 5 -10 10 0 6 5 10 10 10 6 0
10 -4 10 -10z m-964 -140 c4 -8 21 -29 38 -46 46 -46 52 -56 59 -94 4 -22 4
-30 -2 -21 -7 12 -11 12 -23 0 -11 -10 -13 -23 -7 -47 10 -44 21 -55 58 -54
24 0 32 -6 45 -33 9 -18 16 -48 16 -67 0 -33 -2 -34 -30 -30 -35 5 -93 65
-116 120 -9 20 -31 67 -50 104 -39 77 -54 170 -34 208 l12 22 14 -23 c7 -13
16 -31 20 -39z m1429 10 c3 -5 1 -10 -4 -10 -6 0 -11 5 -11 10 0 6 2 10 4 10
3 0 8 -4 11 -10z m475 -92 c-25 -21 -29 -21 -50 -8 -22 14 -1 63 30 70 20 5
27 2 34 -19 7 -20 5 -28 -14 -43z m-470 -4 c0 -8 -4 -12 -10 -9 -5 3 -10 10
-10 16 0 5 5 9 10 9 6 0 10 -7 10 -16z m498 -60 c-13 -13 -15 -11 -15 15 0 26
2 27 15 14 13 -13 13 -16 0 -29z m-1780 -64 c12 -34 1 -47 -22 -24 -18 17 -19
24 -10 48 8 21 20 13 32 -24z m1271 -85 c0 -27 -4 -59 -9 -70 -6 -14 -9 -3 -8
40 0 33 -1 65 -2 70 -1 6 -2 17 -1 25 1 13 2 13 11 0 5 -8 9 -37 9 -65z m-649
21 c0 -3 -4 -8 -10 -11 -5 -3 -10 -1 -10 4 0 6 5 11 10 11 6 0 10 -2 10 -4z
m-1105 -43 c21 -20 13 -72 -13 -91 -14 -11 -20 -10 -34 9 -21 25 -23 52 -6 79
16 24 31 25 53 3z m1135 -74 c-19 -6 -58 -19 -85 -30 -61 -23 -85 -24 -85 -4
0 8 9 15 20 15 11 0 20 4 20 9 0 5 9 7 19 4 11 -3 27 -1 36 4 9 5 37 10 63 10
l47 2 -35 -10z m600 -19 c0 -5 -5 -10 -11 -10 -5 0 -7 5 -4 10 3 6 8 10 11 10
2 0 4 -4 4 -10z m-356 -15 c-6 -16 -24 -21 -24 -7 0 11 11 22 21 22 5 0 6 -7
3 -15z m-78 -18 c9 14 11 14 22 0 11 -12 11 -17 0 -26 -84 -69 -76 -66 -172
-64 -50 1 -102 4 -116 6 -14 3 -28 5 -32 6 -5 0 -8 7 -8 15 0 39 226 88 276
60 16 -10 22 -9 30 3z m-636 -102 c15 9 12 -4 -4 -20 -12 -12 -15 -12 -21 2
-5 14 -8 15 -14 4 -12 -19 -24 4 -15 31 l7 22 18 -23 c10 -12 23 -20 29 -16z
m433 -65 c7 1 5 6 -6 14 -28 22 0 34 58 26 37 -5 45 -9 32 -15 -10 -4 -21 -5
-24 -2 -3 4 -14 2 -25 -4 -18 -10 -18 -12 -4 -28 21 -23 20 -31 -1 -31 -10 0
-14 -4 -8 -8 6 -4 10 -14 10 -22 0 -8 8 -14 17 -14 10 1 15 -2 12 -7 -5 -8 42
-14 76 -9 12 1 12 -1 3 -10 -6 -7 -9 -19 -6 -26 3 -8 -1 -14 -11 -14 -9 0 -15
-3 -15 -7 1 -5 1 -16 0 -27 -1 -15 -4 -16 -15 -7 -8 7 -17 8 -20 3 -8 -14 -58
-12 -82 3 -12 8 -26 10 -34 5 -8 -5 -23 -2 -37 7 -13 8 -32 13 -43 10 -11 -3
-22 -1 -25 3 -3 5 7 10 22 12 37 4 45 38 9 38 -14 0 -28 -5 -32 -11 -10 -16
-25 12 -18 34 4 13 -1 17 -23 17 -26 -1 -27 -2 -9 -15 18 -13 15 -35 -5 -35
-6 0 -7 5 -3 12 5 8 2 9 -10 5 -10 -4 -19 -1 -22 8 -4 8 -10 13 -14 10 -5 -3
-11 -1 -15 5 -3 6 1 13 9 16 9 3 16 13 16 21 0 11 8 12 38 7 37 -7 37 -7 17
13 -11 11 -23 19 -27 16 -9 -5 -10 14 -2 45 4 12 13 22 20 22 8 0 14 7 14 15
0 10 24 1 85 -30 47 -25 91 -45 98 -45z m-675 52 c28 -25 32 -36 35 -90 2 -34
-1 -66 -7 -72 -20 -20 4 -22 56 -4 95 31 227 19 153 -14 -38 -17 -43 -14 -16
8 l23 20 -29 0 c-75 0 -178 -40 -350 -134 -46 -25 -83 -43 -83 -41 0 2 10 14
23 25 l22 21 -70 -5 c-38 -2 -88 -9 -110 -15 -60 -15 -55 -4 6 13 30 8 90 18
134 21 44 4 91 13 105 22 14 8 17 12 8 9 -9 -3 -32 2 -50 11 -65 33 -88 69
-88 138 0 61 39 102 103 108 97 8 103 7 135 -21z m332 -42 c0 -21 -24 -28 -35
-10 -5 8 -11 8 -19 1 -7 -6 -16 -8 -19 -4 -14 14 -6 22 26 26 17 2 35 5 40 5
4 1 7 -7 7 -18z m1060 -115 c13 -14 21 -25 18 -25 -2 0 -15 11 -28 25 -13 14
-21 25 -18 25 2 0 15 -11 28 -25z m-1810 -230 c-7 -8 -21 -15 -32 -15 -10 0
-37 -9 -60 -21 -26 -13 -51 -19 -68 -15 -15 2 -33 0 -40 -7 -10 -9 -11 -9 -8
3 4 10 17 14 43 13 21 -2 49 4 64 12 21 12 93 41 110 44 2 1 -2 -6 -9 -14z
m875 -5 c3 -5 1 -10 -4 -10 -6 0 -11 5 -11 10 0 6 2 10 4 10 3 0 8 -4 11 -10z
m70 -98 c-11 -9 -14 -10 -7 -2 17 20 15 30 -5 24 -15 -5 -16 -4 -3 5 24 17 37
-6 15 -27z m-1200 -6 c-30 -24 -43 -27 -30 -6 6 10 39 27 55 29 3 1 -8 -10
-25 -23z m1237 -3 c-6 -2 -9 -10 -6 -15 4 -7 2 -8 -5 -4 -13 9 -5 26 12 25 9
0 8 -2 -1 -6z m64 -43 c15 -6 25 -13 22 -15 -3 -3 -20 1 -39 9 -38 17 -25 21
17 6z m54 0 c0 -5 -2 -10 -4 -10 -3 0 -8 5 -11 10 -3 6 -1 10 4 10 6 0 11 -4
11 -10z m-1440 -60 c-17 -22 -34 -40 -37 -40 -6 0 10 22 41 58 32 37 30 25 -4
-18z"/>
<path d="M1476 2361 c-4 -7 -5 -15 -2 -18 9 -9 19 4 14 18 -4 11 -6 11 -12 0z"/>
<path d="M1440 2279 c0 -5 5 -7 10 -4 6 3 10 8 10 11 0 2 -4 4 -10 4 -5 0 -10
-5 -10 -11z"/>
<path d="M1305 1871 c-19 -8 -150 -21 -203 -21 -23 0 -85 -40 -109 -70 -6 -8
-11 -32 -10 -52 1 -33 5 -38 25 -38 16 0 21 -4 15 -12 -12 -21 -12 -38 0 -40
7 0 17 -2 22 -3 6 -2 16 -3 24 -4 7 -1 11 -7 7 -16 -6 -16 -2 -18 31 -9 13 4
20 11 16 18 -3 6 -3 8 2 4 4 -4 20 1 34 10 25 18 61 19 61 3 0 -5 -30 -19 -67
-33 -37 -13 -68 -29 -70 -35 -2 -5 16 -16 41 -23 28 -8 43 -17 40 -25 -5 -13
22 -29 35 -21 4 3 14 -4 21 -15 16 -22 30 -25 30 -6 0 7 9 20 20 30 11 9 20
14 20 11 0 -4 7 -1 16 7 8 7 13 21 11 30 -5 18 56 83 67 72 3 -4 6 0 6 9 0 8
9 23 21 34 16 14 19 26 14 49 -3 16 -7 44 -9 60 -5 61 -16 83 -48 89 -36 7
-37 7 -63 -3z m-110 -97 c13 -5 8 -11 -21 -25 -22 -9 -49 -19 -61 -21 -38 -6
-26 15 19 33 24 9 44 17 45 18 1 1 9 -2 18 -5z m110 -43 c3 -5 1 -12 -5 -16
-5 -3 -10 1 -10 9 0 18 6 21 15 7z m-115 -46 c10 -13 9 -15 -9 -15 -12 0 -21
6 -21 15 0 8 4 15 9 15 5 0 14 -7 21 -15z m150 -49 c0 -3 -4 -8 -10 -11 -5 -3
-10 -1 -10 4 0 6 5 11 10 11 6 0 10 -2 10 -4z"/>
<path d="M1405 1520 c-8 -13 3 -30 20 -30 20 0 30 21 14 31 -18 11 -26 11 -34
-1z"/>
<path d="M1356 1452 c-3 -5 1 -15 9 -22 16 -14 20 -3 6 19 -5 8 -11 9 -15 3z"/>
<path d="M1110 1245 c0 -8 5 -15 10 -15 6 0 10 7 10 15 0 8 -4 15 -10 15 -5 0
-10 -7 -10 -15z"/>
<path d="M704 1653 c3 -10 10 -36 15 -58 12 -46 51 -109 51 -84 0 9 -7 33 -15
53 -9 20 -16 52 -17 71 -1 27 -5 35 -20 35 -14 0 -18 -5 -14 -17z"/>
<path d="M1598 943 c7 -3 16 -2 19 1 4 3 -2 6 -13 5 -11 0 -14 -3 -6 -6z"/>
<path d="M1566 921 c-3 -5 5 -8 19 -7 14 0 25 4 25 9 0 10 -38 9 -44 -2z"/>
<path d="M2440 3170 c0 -5 10 -15 23 -21 12 -7 25 -16 28 -22 4 -5 22 -7 42
-3 26 5 35 11 30 21 -3 8 0 15 5 15 6 0 13 -8 15 -17 3 -11 5 -7 6 10 l1 27
-75 0 c-42 0 -75 -4 -75 -10z"/>
<path d="M3061 3159 c14 -26 3 -88 -17 -96 -19 -7 -18 -26 5 -71 19 -39 35
-127 34 -199 0 -50 20 -62 68 -43 29 12 29 12 29 102 0 62 -4 96 -15 112 -17
25 -16 49 3 83 16 29 15 58 -2 72 -8 7 -17 23 -20 36 -6 22 -12 25 -52 25 -42
0 -44 -1 -33 -21z"/>
<path d="M2768 3116 c-10 -7 -18 -22 -18 -32 0 -15 -2 -16 -9 -5 -5 7 -14 10
-20 7 -6 -4 -11 -2 -11 4 0 7 -6 5 -15 -4 -8 -8 -24 -18 -35 -21 -11 -4 -18
-10 -15 -15 3 -4 -2 -10 -10 -14 -17 -6 -21 -66 -5 -66 6 0 10 -16 10 -36 0
-24 8 -46 25 -66 14 -16 25 -36 25 -43 0 -8 8 -19 19 -24 13 -7 17 -18 14 -36
-5 -24 10 -35 21 -16 3 5 32 12 63 16 32 4 63 11 69 16 8 6 3 32 -17 89 -15
44 -25 80 -22 80 3 0 0 6 -6 14 -10 12 -8 19 8 35 12 12 26 21 32 21 6 0 4 7
-5 15 -8 8 -21 15 -29 15 -8 0 -23 12 -32 27 -17 25 -17 26 1 19 16 -6 17 -5
6 6 -11 11 -17 9 -33 -11 -23 -28 -25 -20 -3 14 18 28 17 30 -8 11z m-47 -270
c11 -11 16 -22 14 -25 -12 -11 -55 49 -54 76 l1 28 10 -30 c6 -16 19 -38 29
-49z"/>
<path d="M2820 3070 c0 -5 5 -10 11 -10 5 0 7 5 4 10 -3 6 -8 10 -11 10 -2 0
-4 -4 -4 -10z"/>
<path d="M1448 2963 c6 -2 18 -2 25 0 6 3 1 5 -13 5 -14 0 -19 -2 -12 -5z"/>
<path d="M2281 2562 c-1 -15 -5 -21 -13 -16 -7 5 -8 3 -3 -5 10 -18 28 2 22
25 -4 15 -5 14 -6 -4z"/>
<path d="M543 2498 c-18 -4 -48 -12 -65 -16 -18 -5 -32 -14 -30 -20 1 -7 -3
-12 -10 -12 -8 0 -9 -3 -2 -10 5 -5 50 -15 99 -23 l90 -13 0 49 c0 46 -2 50
-25 52 -14 1 -40 -2 -57 -7z"/>
<path d="M3147 1474 c-5 -5 -41 -9 -109 -14 -5 0 -8 -4 -8 -9 0 -12 81 -41
116 -41 27 0 30 3 32 35 2 33 -13 47 -31 29z"/>
<path d="M2590 1356 c0 -7 10 -16 23 -20 31 -8 37 -7 37 4 0 5 -7 7 -15 4 -8
-4 -17 1 -21 10 -8 20 -24 21 -24 2z"/>
<path d="M2200 1020 c8 -5 20 -10 25 -10 6 0 3 5 -5 10 -8 5 -19 10 -25 10 -5
0 -3 -5 5 -10z"/>
<path d="M2295 1020 c-25 -10 -19 -13 89 -40 85 -21 156 -26 156 -10 0 5 -6 7
-14 4 -9 -3 -17 3 -21 15 -3 12 -11 18 -17 15 -7 -4 -6 -9 2 -14 8 -5 5 -9 -9
-13 -12 -3 -19 -2 -16 3 3 4 -2 11 -11 14 -8 3 -12 2 -9 -4 3 -6 -1 -10 -9
-10 -20 0 -30 17 -14 23 7 3 3 6 -9 6 -13 1 -23 -4 -23 -10 0 -7 -7 -8 -17 -4
-19 7 -41 13 -58 14 -5 1 -3 6 5 11 18 12 3 12 -25 0z"/>
<path d="M2555 969 c-11 -16 -3 -19 80 -25 53 -4 75 -2 70 5 -3 6 -21 11 -38
11 -24 0 -28 3 -17 10 12 7 8 10 -15 10 -22 0 -26 -3 -15 -10 21 -13 10 -18
-27 -13 -18 3 -30 9 -27 14 3 5 3 9 0 9 -3 0 -8 -5 -11 -11z"/>
<path d="M2730 945 c0 -8 4 -15 10 -15 5 0 7 7 4 15 -4 8 -8 15 -10 15 -2 0
-4 -7 -4 -15z"/>
<path d="M3008 908 c6 -6 18 -8 28 -6 14 3 12 5 -9 10 -19 3 -25 2 -19 -4z"/>
</g>
</svg>
